<?xml version="1.0" standalone="no"?>
<!DOCTYPE svg PUBLIC "-//W3C//DTD SVG 20010904//EN"
 "http://www.w3.org/TR/2001/REC-SVG-20010904/DTD/svg10.dtd">
<svg version="1.0" xmlns="http://www.w3.org/2000/svg"
 width="635.000000pt" height="635.000000pt" viewBox="0 0 635.000000 635.000000"
 preserveAspectRatio="xMidYMid meet">
<metadata>
Created by potrace 1.14, written by Peter Selinger 2001-2017
</metadata>
<g transform="translate(0.000000,635.000000) scale(0.100000,-0.100000)"
fill="#000000" stroke="none">
<path d="M3929 5052 c-17 -44 -19 -61 -24 -197 -2 -71 -7 -170 -11 -220 -3
-49 -7 -103 -7 -120 -2 -39 -13 -46 -46 -30 -174 88 -344 145 -475 160 -123
14 -250 17 -327 6 -103 -14 -232 -43 -239 -52 -3 -4 -18 -11 -33 -14 -15 -4
-30 -11 -33 -16 -3 -5 -13 -9 -23 -9 -35 0 -171 -59 -199 -87 -10 -10 -16 -10
-26 0 -10 9 -11 14 -2 19 10 7 1 12 -17 9 -4 -1 -3 7 2 18 6 10 8 21 4 24 -6
6 -9 27 -18 112 -3 28 -8 66 -12 85 -10 56 -10 71 -2 76 7 4 5 42 -5 119 -3
17 -5 43 -5 58 -1 19 -8 30 -23 36 -27 10 -46 2 -27 -10 8 -5 10 -9 4 -9 -12
0 -14 -130 -1 -130 4 0 6 -9 3 -20 -3 -11 0 -20 6 -20 8 0 8 -3 0 -11 -8 -8
-8 -20 -3 -35 5 -13 11 -63 14 -111 3 -48 8 -99 11 -113 3 -14 8 -51 10 -83 4
-52 2 -60 -23 -86 -15 -16 -34 -38 -42 -48 -9 -10 -46 -54 -83 -97 -37 -43
-67 -83 -67 -88 0 -6 -10 -24 -22 -41 -12 -17 -23 -38 -24 -45 -2 -8 -9 -21
-17 -30 -9 -10 -19 -29 -22 -44 -4 -16 -10 -28 -14 -28 -4 0 -16 -25 -26 -55
-11 -30 -23 -55 -29 -55 -5 0 -7 -3 -4 -6 4 -3 0 -20 -7 -39 -8 -18 -11 -35
-8 -39 4 -3 1 -6 -6 -6 -7 0 -11 -6 -8 -12 2 -7 -2 -29 -10 -48 -24 -57 -34
-91 -44 -160 -14 -86 -21 -352 -11 -380 8 -21 -6 -90 -18 -90 -3 0 -6 10 -7
23 -4 42 -9 58 -25 77 -9 10 -14 21 -11 24 4 3 2 6 -4 6 -5 0 -20 20 -32 45
-12 24 -26 47 -32 50 -5 4 -9 15 -9 26 0 10 -4 19 -8 19 -5 0 -17 19 -28 43
-10 23 -21 44 -24 47 -3 3 -14 22 -23 42 -23 48 -34 55 -33 18 1 -17 4 -30 7
-30 3 0 6 -6 7 -12 2 -27 13 -75 33 -136 19 -61 28 -103 45 -202 13 -76 6
-343 -10 -368 -3 -6 -1 -14 5 -18 8 -5 9 -3 4 6 -5 9 -4 11 3 6 9 -5 8 -12 -1
-27 -10 -16 -9 -21 3 -29 13 -9 13 -10 0 -10 -10 0 -11 -3 -4 -8 6 -4 13 -16
16 -27 3 -11 9 -29 13 -40 6 -16 3 -15 -14 5 -12 14 -20 19 -19 11 2 -8 17
-27 33 -43 17 -17 24 -27 18 -23 -7 3 -13 1 -13 -4 0 -6 5 -11 10 -11 6 0 10
-7 10 -15 0 -8 5 -16 10 -16 6 -1 14 -2 19 -3 5 0 13 -5 18 -10 5 -5 3 -6 -4
-2 -8 4 -13 1 -13 -9 0 -9 3 -14 8 -11 8 5 49 -22 45 -29 -2 -3 -2 -7 -2 -10
1 -3 2 -11 3 -17 1 -7 10 -12 20 -10 11 2 15 -1 11 -7 -3 -6 1 -11 9 -11 9 0
16 -7 16 -16 0 -10 6 -14 14 -11 15 6 46 -22 46 -42 0 -7 5 -9 10 -6 6 3 10 2
10 -4 0 -5 9 -12 20 -16 11 -3 19 -9 18 -13 -2 -4 10 -20 26 -37 16 -16 26
-23 22 -15 -6 12 -5 12 6 -1 7 -8 21 -18 31 -22 9 -3 17 -12 17 -19 0 -9 -3
-9 -11 2 -9 13 -10 13 -6 0 2 -8 8 -15 13 -15 5 0 20 -8 34 -18 13 -9 20 -17
15 -17 -6 0 5 -9 23 -20 27 -17 31 -24 22 -35 -9 -11 -7 -12 9 -8 15 4 21 1
21 -11 0 -11 5 -14 12 -10 8 5 9 2 4 -11 -5 -14 -4 -16 7 -7 11 9 17 6 27 -13
7 -14 17 -25 22 -25 4 0 8 -5 8 -11 0 -5 -5 -7 -12 -3 -7 4 -8 3 -4 -5 4 -6
12 -9 17 -6 5 4 12 -1 15 -9 3 -9 11 -13 17 -9 5 3 7 1 4 -4 -9 -14 25 -51 42
-45 8 2 11 1 8 -4 -3 -5 1 -20 10 -34 10 -18 13 -20 9 -5 l-6 20 15 -20 c9
-11 23 -29 33 -40 9 -11 15 -24 14 -28 -1 -5 2 -6 8 -2 5 3 10 1 10 -5 0 -6 5
-8 10 -5 6 3 10 0 10 -7 0 -15 53 -68 68 -68 6 0 14 -9 17 -20 3 -11 12 -20
20 -20 7 0 23 -16 35 -34 11 -19 30 -38 40 -41 11 -4 20 -12 20 -18 0 -13 171
-170 186 -170 5 0 15 -7 22 -14 8 -7 18 -11 23 -8 5 4 9 2 9 -3 0 -5 7 -9 15
-10 8 -1 22 -3 30 -4 8 -1 15 -6 15 -12 0 -6 5 -4 10 4 5 8 10 10 10 5 0 -6 9
-11 20 -12 11 -1 18 2 15 6 -2 5 12 6 31 4 21 -2 33 0 30 6 -4 6 4 7 23 1 16
-4 31 -6 33 -4 2 2 15 5 29 8 13 2 23 9 22 15 -2 5 3 8 11 5 8 -3 17 0 21 5 3
6 11 9 16 6 5 -4 9 -1 9 4 0 6 7 11 16 11 9 0 12 5 8 12 -5 8 -2 9 12 4 10 -4
15 -4 11 0 -4 4 9 18 29 32 20 13 44 32 53 41 10 9 36 33 59 53 23 20 42 39
42 42 0 3 16 23 35 43 19 20 33 38 31 40 -4 5 105 123 239 257 66 67 152 159
190 204 68 82 115 119 136 107 5 -4 8 -1 7 7 -2 7 3 12 10 10 6 -1 11 3 10 9
-2 6 3 14 11 17 9 3 11 0 6 -9 -5 -8 -4 -11 1 -6 5 5 9 16 9 25 0 10 7 16 17
16 10 -1 14 4 11 12 -3 8 1 14 11 14 9 0 16 7 16 15 0 8 5 15 11 15 5 0 7 -6
3 -13 -4 -7 -3 -9 2 -4 5 5 9 12 10 15 0 11 60 131 102 207 52 94 66 171 58
328 -4 74 -2 153 4 198 12 81 64 274 85 317 8 15 16 41 20 57 l6 30 -18 -25
c-10 -13 -30 -39 -45 -56 -15 -17 -25 -34 -21 -38 3 -3 2 -6 -4 -6 -5 0 -15
-12 -22 -27 -18 -39 -124 -207 -133 -211 -5 -2 -6 -8 -2 -13 3 -5 0 -9 -6 -9
-6 0 -10 -8 -8 -17 2 -10 -4 -19 -15 -21 -15 -3 -17 2 -11 40 10 77 13 102 15
158 3 85 -12 213 -27 228 -9 9 -11 20 -4 36 5 13 7 26 4 29 -3 2 -7 17 -10 33
-17 105 -39 195 -64 263 -16 44 -26 82 -23 85 4 3 1 6 -5 6 -7 0 -12 9 -12 19
0 11 -4 21 -8 23 -4 2 -21 32 -36 68 -42 94 -87 154 -183 248 -97 94 -90 70
-79 276 7 125 15 182 33 256 7 29 10 138 4 186 0 7 -10 14 -22 17 -15 4 -23
-1 -30 -21z"/>
<path d="M2070 2289 c0 -5 5 -7 10 -4 6 3 10 8 10 11 0 2 -4 4 -10 4 -5 0 -10
-5 -10 -11z"/>
</g>
</svg>
