<?xml version="1.0" standalone="no"?>
<!DOCTYPE svg PUBLIC "-//W3C//DTD SVG 20010904//EN"
 "http://www.w3.org/TR/2001/REC-SVG-20010904/DTD/svg10.dtd">
<svg version="1.0" xmlns="http://www.w3.org/2000/svg"
 width="988.000000pt" height="777.000000pt" viewBox="0 0 988.000000 777.000000"
 preserveAspectRatio="xMidYMid meet">
<metadata>
Created by potrace 1.16, written by Peter Selinger 2001-2019
</metadata>
<g transform="translate(0.000000,777.000000) scale(0.100000,-0.100000)"
fill="#000000" stroke="none">
<path d="M0 3885 l0 -3885 4940 0 4940 0 0 3885 0 3885 -4940 0 -4940 0 0
-3885z m5679 2420 c157 -37 280 -133 345 -267 45 -95 58 -152 57 -265 0 -110
-3 -122 -89 -367 -64 -183 -65 -190 -46 -203 124 -87 203 -150 273 -217 231
-224 386 -503 459 -826 24 -106 26 -133 26 -345 1 -249 -12 -341 -70 -515 -34
-100 -141 -317 -202 -410 -327 -492 -944 -777 -1537 -710 -455 53 -868 287
-1135 644 -228 305 -340 660 -327 1036 14 404 151 749 415 1045 409 459 1048
649 1647 489 55 -14 107 -27 114 -28 10 -1 33 50 74 164 52 145 59 175 60 245
2 59 -3 89 -16 115 -23 47 -87 87 -151 95 -28 3 -276 5 -551 3 -537 -3 -519
-1 -578 -56 -35 -34 -61 -120 -53 -176 4 -22 23 -91 43 -153 21 -62 35 -115
32 -117 -3 -3 -70 -36 -150 -74 l-144 -69 -43 121 c-95 265 -96 402 -6 583 69
137 212 239 374 266 14 2 270 5 570 5 456 2 556 -1 609 -13z"/>
<path d="M3797 4364 c-12 -73 -7 -300 9 -395 21 -124 65 -257 117 -349 51 -90
194 -239 280 -289 134 -79 330 -132 533 -146 l101 -7 7 32 c13 69 0 292 -25
405 -23 104 -62 222 -99 295 -149 297 -427 465 -806 486 l-111 7 -6 -39z"/>
<path d="M6155 4394 c-84 -11 -229 -51 -305 -83 -264 -114 -431 -324 -511
-642 -26 -107 -31 -149 -36 -301 -5 -156 -4 -178 10 -184 29 -11 261 15 362
41 122 31 279 106 362 174 130 107 231 273 279 457 33 128 50 330 38 449 l-9
90 -80 1 c-44 1 -93 0 -110 -2z"/>
</g>
</svg>
