<?xml version="1.0" standalone="no"?>
<!DOCTYPE svg PUBLIC "-//W3C//DTD SVG 20010904//EN"
 "http://www.w3.org/TR/2001/REC-SVG-20010904/DTD/svg10.dtd">
<svg version="1.0" xmlns="http://www.w3.org/2000/svg"
 width="635.000000pt" height="635.000000pt" viewBox="0 0 635.000000 635.000000"
 preserveAspectRatio="xMidYMid meet">
<metadata>
Created by potrace 1.14, written by Peter Selinger 2001-2017
</metadata>
<g transform="translate(0.000000,635.000000) scale(0.100000,-0.100000)"
fill="#000000" stroke="none">
<path d="M2435 5146 c-18 -13 -19 -19 -7 -101 7 -48 19 -106 27 -129 9 -27 17
-103 20 -199 3 -85 8 -165 10 -177 3 -16 -8 -34 -38 -64 -104 -105 -211 -245
-223 -293 -4 -13 -11 -23 -17 -23 -6 0 -7 -3 -4 -6 4 -4 -2 -19 -13 -34 -27
-39 -118 -316 -126 -387 -3 -32 -8 -164 -10 -293 -5 -240 -5 -250 -2 -285 2
-37 -2 -55 -12 -55 -5 0 -10 7 -10 16 0 9 -20 60 -46 113 -25 53 -46 98 -46
101 -1 3 -8 11 -17 18 -9 8 -11 11 -4 7 7 -3 -3 25 -21 62 -19 38 -44 89 -56
114 -32 67 -68 103 -86 88 -20 -17 -18 -26 28 -109 23 -41 44 -82 45 -90 17
-75 33 -308 32 -455 -1 -176 -1 -182 29 -268 52 -148 108 -215 267 -320 98
-64 177 -143 251 -251 12 -17 45 -56 74 -86 29 -30 65 -72 80 -93 32 -42 85
-102 192 -217 180 -193 215 -222 343 -288 55 -29 67 -31 145 -29 72 2 94 7
145 32 33 17 62 32 65 35 11 11 79 60 83 60 13 0 303 306 365 386 22 28 52 64
67 80 47 50 135 158 135 165 0 5 10 18 23 31 12 13 31 34 42 48 27 34 108 99
175 142 49 31 155 128 186 169 21 29 34 58 61 141 26 78 27 95 29 283 3 310
12 399 48 471 41 82 45 98 31 117 -14 20 -42 14 -49 -11 -3 -10 -5 -19 -3 -22
1 -3 -8 -16 -20 -29 -12 -13 -25 -37 -28 -52 -4 -16 -23 -53 -43 -82 -20 -28
-35 -53 -34 -54 1 -2 -8 -22 -18 -45 -11 -24 -20 -50 -20 -59 0 -9 -3 -19 -7
-23 -5 -4 -8 -11 -8 -14 -1 -14 -44 -102 -50 -102 -3 0 -3 12 1 28 9 44 13
495 3 519 -4 12 -9 39 -11 58 -1 20 -6 39 -10 41 -4 3 -3 14 2 25 6 10 7 19 3
19 -5 0 -10 10 -11 23 -3 28 -7 48 -15 67 -3 8 -14 42 -23 75 -59 212 -149
374 -282 504 l-85 83 7 142 c4 77 7 155 6 173 0 17 6 49 14 70 21 53 44 187
39 218 -6 30 -41 42 -72 26 -24 -13 -54 -104 -55 -168 -1 -24 -4 -43 -7 -43
-4 0 -5 -17 -2 -37 8 -59 9 -321 1 -328 -8 -8 -34 5 -118 60 -62 41 -248 112
-315 120 -16 2 -39 6 -50 8 -40 9 -105 19 -157 23 -68 6 -68 6 -98 1 -25 -5
-75 -12 -160 -23 -81 -10 -155 -32 -227 -68 -39 -20 -74 -36 -77 -36 -4 0 -40
-20 -80 -45 -41 -25 -77 -45 -81 -45 -4 0 -4 71 -1 158 9 232 8 251 -14 326
-28 99 -59 126 -105 92z"/>
</g>
</svg>
